#!OML:ASF \\sashay\E\basketball\basketball\Project 1\Capture day 1\Session 1\Subject.ASF
:FULLY-SPECIFIED
:DEGREES
99
root -24.177 13.316 5.62756 379.748 60.8862 336.216
lowerback -1.60045 5.44622 22.7131
upperback 1.40614 6.64497 2.42218
thorax 4.75057 3.89988 -9.38522
lowerneck -6.26351 -1.71109 -10.7568
upperneck -14.0327 -0.812791 8.05159
head -3.04895 0.00690552 4.25283
rclavicle 2.62396e-014 -3.02153e-014
rhumerus 20.2829 -13.7988 -97.175
rradius 25.5693
rwrist 54.9918
rhand -33.2175 42.8851
rfingers 7.12502
rthumb -6.42416 13.0025
lclavicle 2.62396e-014 -3.02153e-014
lhumerus -26.8983 -11.9419 96.8406
lradius 37.9552
lwrist 13.4026
lhand -20.6207 30.1481
lfingers 7.12502
lthumb 5.7406 60.0503
rfemur -81.4856 -15.0433 29.593
rtibia 73.4528
rfoot -21.3695 -8.40808
rtoes -32.397
lfemur -50.199 30.6453 -22.8334
ltibia 103.164
lfoot -8.26116 7.46401
ltoes -3.59162
100
root -23.9206 13.2887 5.78848 383.208 60.0229 338.803
lowerback -1.30835 6.06635 21.8611
upperback 1.51878 7.54764 1.57438
thorax 5.02772 4.36574 -9.76201
lowerneck -7.0967 -2.30019 -10.2878
upperneck -14.764 -1.43619 8.40751
head -3.06919 -0.294002 4.29173
rclavicle -2.8625e-014 1.27222e-014
rhumerus 28.6793 -30.2001 -107.634
rradius 19.2447
rwrist 68.687
rhand -31.6589 39.3263
rfingers 7.12502
rthumb -4.91936 9.40345
lclavicle -2.8625e-014 1.27222e-014
lhumerus -27.6826 -11.8414 95.061
lradius 35.299
lwrist 11.8423
lhand -20.8547 31.3255
lfingers 7.12502
lthumb 5.51459 61.2338
rfemur -82.0088 -15.2831 28.4954
rtibia 74.0886
rfoot -22.4544 -8.6084
rtoes -34.7789
lfemur -56.152 30.4554 -26.8876
ltibia 106.855
lfoot -8.1968 7.56294
ltoes -1.99566
101
root -23.6645 13.2564 5.95821 386.991 59.4026 341.476
lowerback -1.44292 6.54219 20.2518
upperback 1.47626 8.19434 1.07235
thorax 5.1163 4.65019 -9.35354
lowerneck -8.21216 -2.84473 -9.91124
upperneck -14.6494 -2.096 8.15492
head -2.8075 -0.6045 4.13413
rclavicle -1.04958e-013 -1.59028e-015
rhumerus 46.8361 -48.7187 -129.878
rradius 15.1647
rwrist 86.5095
rhand -30.2911 35.4285
rfingers 7.12502
rthumb -3.59856 5.4791
lclavicle -1.04958e-013 -1.59028e-015
lhumerus -28.5717 -11.0484 93.5944
lradius 32.6454
lwrist 10.2252
lhand -21.1243 32.0157
lfingers 7.12502
lthumb 5.25432 61.9306
rfemur -82.7961 -15.8145 27.379
rtibia 74.7223
rfoot -23.6945 -8.82585
rtoes -36.8672
lfemur -62.5477 29.4574 -31.0596
ltibia 110.1
lfoot -7.90411 7.2166
ltoes -4.33354
102
root -23.4004 13.2271 6.12806 390.221 59.0105 343.721
lowerback -1.48858 6.79115 18.3819
upperback 1.27618 8.58957 0.905107
thorax 4.78101 4.75536 -8.50248
lowerneck -8.0276 -2.98551 -10.3082
upperneck -15.7375 -2.17963 8.39081
head -3.14507 -0.606986 4.29483
rclavicle 3.65764e-014 7.79236e-014
rhumerus 67.2147 -56.6531 -152.615
rradius 13.9188
rwrist 90.955
rhand -29.7374 32.2765
rfingers 7.12502
rthumb -3.06381 2.31878
lclavicle 3.65764e-014 7.79236e-014
lhumerus -30.1713 -9.54686 92.3104
lradius 30.552
lwrist 8.54207
lhand -21.2282 32.7789
lfingers 7.12502
lthumb 5.15399 62.6962
rfemur -83.3242 -16.6921 26.6084
rtibia 75.299
rfoot -25.0044 -8.87928
rtoes -38.2193
lfemur -68.586 27.8857 -34.6949
ltibia 112.777
lfoot -7.32719 6.75696
ltoes -11.4379
103
root -23.1366 13.1935 6.30011 392.933 58.9139 345.34
lowerback -2.07988 7.12259 17.0204
upperback 1.40348 8.93962 0.573322
thorax 5.19751 4.93208 -7.99864
lowerneck -8.40131 -3.36625 -10.2817
upperneck -16.6753 -2.52464 8.85347
head -3.32199 -0.756889 4.44718
rclavicle -9.54166e-015 4.29375e-014
rhumerus 78.7933 -57.726 -164.19
rradius 13.6268
rwrist 82.302
rhand -29.553 32.7817
rfingers 7.12502
rthumb -2.88576 2.8215
lclavicle -9.54166e-015 4.29375e-014
lhumerus -31.3788 -8.75077 90.6645
lradius 29.0726
lwrist 7.10316
lhand -21.5268 33.5503
lfingers 7.12502
lthumb 4.86569 63.4745
rfemur -83.8481 -17.6747 26.3527
rtibia 75.8025
rfoot -26.1797 -8.97391
rtoes -38.9716
lfemur -74.6123 25.8926 -37.7056
ltibia 115.01
lfoot -6.68658 5.46414
ltoes -18.4104
104
root -22.8485 13.1634 6.4725 395.359 58.8678 346.834
lowerback -2.45698 7.75504 16.6079
upperback 1.51098 9.74152 -0.714626
thorax 5.92412 5.40124 -8.96708
lowerneck -9.47086 -4.05163 -8.87924
upperneck -17.3516 -3.26548 9.53774
head -3.28442 -1.17691 4.41753
rclavicle 1.59028e-014 7.95139e-015
rhumerus 73.6128 -56.9614 -156.623
rradius 14.842
rwrist 60.6306
rhand -27.4901 32.5619
rfingers 7.12502
rthumb -0.893485 2.58407
lclavicle 1.59028e-014 7.95139e-015
lhumerus -32.5904 -10.8414 88.2956
lradius 28.3114
lwrist 7.1463
lhand -22.2152 34.1109
lfingers 7.12502
lthumb 4.20095 64.0492
rfemur -83.9491 -18.7592 26.0039
rtibia 76.1666
rfoot -27.5514 -8.6435
rtoes -38.981
lfemur -79.9919 23.7065 -40.4095
ltibia 116.579
lfoot -6.3949 4.7673
ltoes -16.8399
105
root -22.5468 13.137 6.65375 398.022 59.0969 348.139
lowerback -3.24273 7.74836 14.7162
upperback 1.17779 9.70116 -0.565461
thorax 5.62715 5.27639 -7.73324
lowerneck -9.722 -4.08182 -9.24165
upperneck -17.7224 -3.20846 9.60863
head -3.35472 -1.10926 4.50641
rclavicle 1.74931e-014 -2.70347e-014
rhumerus 58.077 -53.7607 -137.018
rradius 16.7071
rwrist 34.3215
rhand -24.5154 32.403
rfingers 7.12502
rthumb 1.97956 2.43242
lclavicle 1.74931e-014 -2.70347e-014
lhumerus -35.5016 -9.90459 87.5043
lradius 28.232
lwrist 7.42067
lhand -22.9877 34.8811
lfingers 7.12502
lthumb 3.45494 64.8328
rfemur -84.2945 -19.9248 25.9664
rtibia 76.3327
rfoot -28.7529 -8.28028
rtoes -39.2915
lfemur -85.5404 21.0108 -42.8798
ltibia 117.566
lfoot -6.02039 4.68623
ltoes -17.0507
106
root -22.2355 13.1168 6.84463 401.006 59.4539 349.421
lowerback -4.60234 7.97344 13.6083
upperback 0.830218 9.89814 -1.26849
thorax 6.00381 5.35779 -7.69996
lowerneck -9.33466 -4.30121 -8.63418
upperneck -18.8812 -3.39776 10.1935
head -3.73586 -1.24979 4.61973
rclavicle 1.46306e-013 3.97569e-014
rhumerus 47.7769 -49.7489 -124.028
rradius 19.6168
rwrist 14.0668
rhand -22.1257 30.9635
rfingers 7.12502
rthumb 4.28736 1.02686
lclavicle 1.46306e-013 3.97569e-014
lhumerus -38.2772 -10.8394 85.9589
lradius 28.914
lwrist 8.95859
lhand -23.3889 36.2107
lfingers 7.12502
lthumb 3.06752 66.1684
rfemur -84.8007 -21.0486 26.1373
rtibia 76.2375
rfoot -29.4203 -8.85695
rtoes -41.2347
lfemur -91.1243 17.9184 -45.122
ltibia 117.933
lfoot -5.83877 4.95446
ltoes -18.2767
107
root -21.9074 13.1126 7.0416 403.78 59.9779 350.566
lowerback -6.34911 7.50909 11.564
upperback 0.492055 9.18413 -0.757114
thorax 6.01948 4.9115 -5.99879
lowerneck -7.72314 -3.84834 -10.0636
upperneck -20.2241 -2.6801 10.7756
head -4.42723 -0.848195 5.11686
rclavicle 4.29375e-014 4.6118e-014
rhumerus 39.4906 -44.8996 -113.192
rradius 22.6796
rwrist -0.0108313
rhand -16.949 30.5438
rfingers 7.12502
rthumb 9.28452 0.768216
lclavicle 4.29375e-014 4.6118e-014
lhumerus -42.0154 -8.89598 85.4763
lradius 29.4915
lwrist 10.0275
lhand -23.663 36.8608
lfingers 7.12502
lthumb 2.80286 66.8221
rfemur -84.8218 -22.0889 26.2989
rtibia 75.8163
rfoot -29.9343 -9.8318
rtoes -43.4202
lfemur -96.1744 14.7902 -46.863
ltibia 117.665
lfoot -6.16215 5.37763
ltoes -18.9242
108
root -21.5556 13.1387 7.24152 406.23 60.659 351.511
lowerback -7.93987 7.42044 10.2235
upperback 0.47813 9.00295 -0.962687
thorax 6.68573 4.80427 -5.3338
lowerneck -8.63745 -4.00502 -10.0442
upperneck -20.7281 -2.64778 11.2226
head -4.42388 -0.798699 5.25774
rclavicle 3.81667e-014 7.95139e-014
rhumerus 34.3122 -41.0606 -105.95
rradius 25.8406
rwrist -5.7023
rhand -14.7249 30.565
rfingers 7.12502
rthumb 11.4301 0.896569
lclavicle 3.81667e-014 7.95139e-014
lhumerus -44.4388 -9.56288 84.8244
lradius 29.748
lwrist 11.9061
lhand -23.8382 37.1861
lfingers 7.12502
lthumb 2.6336 67.1495
rfemur -84.3186 -23.0763 26.4556
rtibia 75.0795
rfoot -30.825 -9.20355
rtoes -43.6335
lfemur -100.53 11.853 -48.1965
ltibia 116.63
lfoot -6.22116 5.81786
ltoes -18.8675
109
root -21.2046 13.155 7.44072 407.813 61.513 351.994
lowerback -9.3322 6.95133 8.77398
upperback 0.440776 8.36456 -0.562737
thorax 7.03446 4.43771 -4.09974
lowerneck -8.26552 -3.8919 -10.7921
upperneck -21.539 -2.32991 11.786
head -4.73799 -0.604074 5.60227
rclavicle -1.27222e-014 -6.36111e-014
rhumerus 28.3987 -35.3995 -98.1376
rradius 28.9732
rwrist -6.86259
rhand -16.8423 31.7216
rfingers 7.12502
rthumb 9.38755 1.95066
lclavicle -1.27222e-014 -6.36111e-014
lhumerus -47.3955 -8.95728 84.8109
lradius 29.707
lwrist 13.1375
lhand -23.9448 37.3561
lfingers 7.12502
lthumb 2.53068 67.3208
rfemur -82.9873 -23.9734 26.5943
rtibia 74.0577
rfoot -31.545 -8.47092
rtoes -43.7641
lfemur -104.277 9.39554 -49.1141
ltibia 115.207
lfoot -5.98374 6.07881
ltoes -19.4241
110
root -20.84 13.1968 7.64179 409.174 62.4052 352.423
lowerback -10.4996 6.35205 7.09669
upperback 0.33079 7.63589 -0.029658
thorax 7.15927 4.00856 -2.66192
lowerneck -7.75982 -3.46592 -11.767
upperneck -21.8157 -1.70354 11.9829
head -4.96289 -0.23705 5.85331
rclavicle -3.02153e-014 -5.08889e-014
rhumerus 23.4065 -30.201 -91.8403
rradius 32.4689
rwrist -5.08473
rhand -19.6064 32.9254
rfingers 7.12502
rthumb 6.71977 3.05204
lclavicle -3.02153e-014 -5.08889e-014
lhumerus -50.2504 -8.14463 85.085
lradius 29.2216
lwrist 13.6627
lhand -23.8069 37.3244
lfingers 7.12502
lthumb 2.66385 67.2875
rfemur -81.0521 -24.7036 26.5657
rtibia 72.5017
rfoot -31.6492 -8.65175
rtoes -44.8364
lfemur -107.328 7.15483 -49.8397
ltibia 113.08
lfoot -5.77798 5.99735
ltoes -19.7981
111
root -20.4655 13.2514 7.83878 409.891 63.4216 352.68
lowerback -11.2315 5.81392 5.67092
upperback 0.368043 7.02056 0.401674
thorax 7.30828 3.64939 -1.48281
lowerneck -6.72069 -3.31796 -12.3198
upperneck -23.3921 -1.3512 12.5576
head -5.64761 -0.042458 6.20907
rclavicle -1.59028e-015 5.24792e-014
rhumerus 19.1405 -26.0548 -86.8978
rradius 36.4752
rwrist -3.11105
rhand -22.2821 33.4229
rfingers 7.12502
rthumb 4.13633 3.48328
lclavicle -1.59028e-015 5.24792e-014
lhumerus -52.4558 -7.71512 85.3719
lradius 28.2661
lwrist 13.5891
lhand -22.975 37.1836
lfingers 7.12502
lthumb 3.46728 67.1351
rfemur -78.1933 -25.4103 26.3619
rtibia 70.4771
rfoot -31.6558 -8.46656
rtoes -45.436
lfemur -109.505 5.35187 -50.4923
ltibia 110.488
lfoot -5.92277 5.50162
ltoes -20.5525
